<?xml version="1.0" encoding="utf-8"?>
<!-- Generator: Adobe Illustrator 19.0.0, SVG Export Plug-In . SVG Version: 6.00 Build 0)  -->
<svg version="1.1" id="icon-user" xmlns="http://www.w3.org/2000/svg" xmlns:xlink="http://www.w3.org/1999/xlink" x="0px" y="0px"
	 viewBox="-207 208 85 85" style="enable-background:new -207 208 85 85;" xml:space="preserve">
<style type="text/css">
	.st0{
		fill:#fff;
		width: 100%;
		height: 100%;
		}
</style>
<g id="XMLID_1496_">
	<path id="XMLID_1499_" class="st0" d="M-155,251.4c5.6-3.3,9.4-9.3,9.4-16.2c0-10.4-8.5-18.9-18.9-18.9s-18.9,8.5-18.9,18.9
		c0,10.3,8.3,18.7,18.6,18.8c0.1,0,0.2,0.1,0.2,0.1c12.6,0,23.6,8.9,26.5,21H-191c1.6-6.5,5.4-12.2,10.9-16.1c0.9-0.7,1.2-2,0.5-2.9
		c-0.7-0.9-2-1.2-2.9-0.5c-7.1,5-11.9,12.7-13.1,21.3c-0.1,0.6,0.1,1.2,0.5,1.7s1,0.7,1.6,0.7h58c0.6,0,1.2-0.3,1.6-0.7
		c0.4-0.5,0.6-1.1,0.5-1.7C-135.1,264.8-143.8,255-155,251.4L-155,251.4z M-179.1,235.2c0-8.1,6.6-14.7,14.7-14.7
		c8.1,0,14.7,6.6,14.7,14.7s-6.6,14.7-14.7,14.7S-179.1,243.3-179.1,235.2L-179.1,235.2z"/>
</g>
</svg>
