<?xml version="1.0" encoding="utf-8"?>
<!-- Generator: Adobe Illustrator 19.0.0, SVG Export Plug-In . SVG Version: 6.00 Build 0)  -->
<svg version="1.1" id="图层_1" xmlns="http://www.w3.org/2000/svg" xmlns:xlink="http://www.w3.org/1999/xlink" x="0px" y="0px"
	 viewBox="0 0 121.4 99.4" style="enable-background:new 0 0 121.4 99.4;" xml:space="preserve">
<style type="text/css">
	.st0{
		fill:#fff;
		width: 100%;
		height: 100%;
		}
</style>
<g id="XMLID_398_">
	<path id="XMLID_404_" class="st0" d="M22.1,83.8c-3.2,0-6-2.9-6-6c0-3.2,2.8-5.8,6-5.8c3.2,0,5.9,2.7,5.9,5.8
		C28,81,25.3,83.8,22.1,83.8L22.1,83.8z"/>
	<path id="XMLID_403_" class="st0" d="M22.1,54.9c-3.2,0-6-2.7-6-5.8c0-3.2,2.8-5.9,6-5.9c3.2,0,5.9,2.7,5.9,5.9
		C28,52.2,25.3,54.9,22.1,54.9L22.1,54.9z"/>
	<path id="XMLID_402_" class="st0" d="M22.1,26.1c-3.2,0-6-2.7-6-5.8c0-3.2,2.8-6,6-6c3.2,0,5.9,2.8,5.9,6
		C28,23.4,25.3,26.1,22.1,26.1L22.1,26.1z"/>
	<path id="XMLID_401_" class="st0" d="M94.2,83.3H43.5c-3,0-5.5-2.5-5.5-5.5c0-3,2.5-5.5,5.5-5.5h50.7c3,0,5.5,2.5,5.5,5.5
		C99.7,80.8,97.2,83.3,94.2,83.3L94.2,83.3z"/>
	<path id="XMLID_400_" class="st0" d="M94.2,54.6H43.5c-3,0-5.5-2.5-5.5-5.5c0-3,2.5-5.5,5.5-5.5h50.7c3,0,5.5,2.5,5.5,5.5
		C99.7,52,97.2,54.6,94.2,54.6L94.2,54.6z"/>
	<path id="XMLID_399_" class="st0" d="M94.2,25.6H43.5c-3,0-5.5-2.3-5.5-5.4c0-3,2.5-5.5,5.5-5.5h50.7c3,0,5.5,2.5,5.5,5.5
		C99.7,23.3,97.2,25.6,94.2,25.6L94.2,25.6z"/>
</g>
</svg>
