<?xml version="1.0" encoding="utf-8"?>
<!-- Generator: Adobe Illustrator 19.0.0, SVG Export Plug-In . SVG Version: 6.00 Build 0)  -->
<svg version="1.1" id="图层_1" xmlns="http://www.w3.org/2000/svg" xmlns:xlink="http://www.w3.org/1999/xlink" x="0px" y="0px"
	 viewBox="0 0 121.4 99.4" style="enable-background:new 0 0 121.4 99.4;" xml:space="preserve">
<style type="text/css">
	.st0{
		fill:#fff;
		width: 100%;
		height: 100%;
		}
</style>
<g id="XMLID_405_">
	<g id="XMLID_406_">
		<path id="XMLID_407_" class="st0" d="M95.7,27.2l-2.7,2.7c3.2,5.6,5,12.1,5,19c0,21.3-17.5,38.6-39,38.6c-21.5,0-39-17.3-39-38.6
			c0-21.3,17.5-38.6,39-38.6c6.5,0,12.6,1.6,18,4.3l2.7-2.7c-6.1-3.4-13.2-5.3-20.7-5.3c-23.6,0-42.7,18.9-42.7,42.3
			c0,23.3,19.1,42.3,42.7,42.3s42.7-18.9,42.7-42.3C101.7,41,99.5,33.6,95.7,27.2L95.7,27.2z M88.8,22.1l2.6,2.6l2.6-2.6l1.3-1.3
			c2.2-2.2,2.2-5.6,0-7.8c-2.2-2.2-5.7-2.2-7.9,0l-1.3,1.3l-2.6,2.6l2.6,2.6L88.8,22.1z M90.1,15.6c0.7-0.7,1.9-0.7,2.6,0
			c0.7,0.7,0.7,1.9,0,2.6l-1.3,1.3l-2.6-2.6L90.1,15.6z M47.1,52.9l-6,13.7l13.9-6l0.1,0.1l33.8-33.5l-2.6-2.6L52.3,58.1l-2.6-2.6
			l33.8-33.5l-2.6-2.6L47.1,52.9L47.1,52.9z M47.1,52.9"/>
	</g>
</g>
</svg>
